<?xml version="1.0" encoding="utf-8"?>
<!-- Generator: Adobe Illustrator 21.0.2, SVG Export Plug-In . SVG Version: 6.00 Build 0)  -->
<svg version="1.1" id="Layer_1" xmlns="http://www.w3.org/2000/svg" xmlns:xlink="http://www.w3.org/1999/xlink" x="0px" y="0px"
	 viewBox="0 0 300 300" style="enable-background:new 0 0 300 300;" xml:space="preserve">
<style type="text/css">
	.st0{fill:#00BBF1;}
	.st1{fill:#FFFFFF;}
</style>
<g>
	<path style="fill:#00BBF1;"
              class="st0" d="M277.3,72.3L153.6,0.9c-1-0.6-2.3-0.9-3.6-0.9l0,0c-0.7,0-1.3,0.1-1.9,0.2c-0.6,0.1-1.2,0.4-1.7,0.6L22.7,72.3
		c-0.3,0.1-0.5,0.3-0.7,0.5c-1.7,1.3-2.9,3.8-2.9,5.8l0,0v142.8c0,0.3,0,0.6,0.1,0.9c0.2,1.5,1.1,3.1,2.2,4.3
		c0.2,0.2,0.4,0.4,0.7,0.6c0.2,0.2,0.5,0.4,0.7,0.5l123.7,71.4c0.3,0.1,0.6,0.2,0.8,0.3c0.9,0.3,1.8,0.5,2.8,0.5
		c1.3,0,2.6-0.3,3.6-0.9l123.7-71.4c2-1.2,3.6-4,3.6-6.3V78.6C281,76.3,279.3,73.4,277.3,72.3z"/>
	<path style="fill:#FFFFFF;"
              class="st1" d="M186.6,89.4c-13.7,0-26.4,4.6-36.6,12.3l0,0l0,0c-10.2-7.7-22.8-12.3-36.6-12.3c-33.6,0-61,27.3-61,61l0,0l0,0
		c0,6.7,1.1,13.1,3.1,19.1c0.4,1.2,0.8,2.4,1.3,3.5c0.3,0.8,0.6,1.6,1,2.3c0.4,0.9,0.9,1.9,1.3,2.8c0.5,1,1,1.9,1.5,2.8
		c0.4,0.7,0.8,1.3,1.2,2c2.4,3.8,5.2,7.3,8.4,10.5l0.1,0.1c11,11,26.3,17.9,43.1,17.9c13.7,0,26.4-4.6,36.6-12.3
		c10.2,7.7,22.8,12.3,36.6,12.3c33.6,0,61-27.3,61-61S220.2,89.4,186.6,89.4z M80.8,175.9c-5.6-7.1-8.9-16-8.9-25.6
		c0-22.9,18.6-41.6,41.6-41.6c2,0,4,0.2,5.9,0.4c1.4,0.2,2.8,0.5,4.2,0.8c4.7,1.2,9,3.1,12.9,5.7c-6.8,9.8-10.8,21.7-10.8,34.6
		c0,12.8,4,24.8,10.8,34.6c-6.6,4.4-14.5,7-23,7c-12.8,0-24.2-5.8-31.8-14.9C81.3,176.7,81.1,176.3,80.8,175.9z M186.6,191.9
		c-8.5,0-16.4-2.6-23-7c6.8-9.8,10.8-21.7,10.8-34.6c0-12.8-4-24.8-10.8-34.6c6.6-4.4,14.5-7,23-7c22.9,0,41.6,18.6,41.6,41.6
		S209.5,191.9,186.6,191.9z"/>
</g>
</svg>
