<?xml version="1.0" encoding="utf-8"?>
<!-- Generator: Adobe Illustrator 21.0.2, SVG Export Plug-In . SVG Version: 6.00 Build 0)  -->
<svg version="1.1" id="Layer_1" xmlns="http://www.w3.org/2000/svg" xmlns:xlink="http://www.w3.org/1999/xlink" x="0px" y="0px"
	 viewBox="0 0 300 300" style="enable-background:new 0 0 300 300;" xml:space="preserve">
<style type="text/css">
	.st0{fill:#00BBF1;}
	.st1{fill:#FFFFFF;}
</style>
<path style="fill:#00BBF1;" class="st0" d="M277.3,72.3L153.6,0.9c-1-0.6-2.3-0.9-3.6-0.9l0,0c-0.7,0-1.3,0.1-1.9,0.2c-0.6,0.1-1.2,0.4-1.7,0.6L22.7,72.3
	c-0.3,0.1-0.5,0.3-0.7,0.5c-0.3,0.3-0.7,0.6-1,1c-0.5,0.6-1,1.3-1.3,2.1c-0.4,0.9-0.6,1.8-0.6,2.7l0,0v142.8c0,0.3,0,0.6,0.1,0.9
	c0.2,1.5,1.1,3.1,2.2,4.3c0.2,0.2,0.4,0.4,0.7,0.6c0.2,0.2,0.5,0.4,0.7,0.5l123.7,71.4c0.3,0.2,0.7,0.3,1,0.4
	c0.8,0.3,1.7,0.5,2.7,0.5c1.3,0,2.6-0.3,3.6-0.9l123.7-71.4c2-1.2,3.6-4,3.6-6.3V78.6C281,76.3,279.3,73.4,277.3,72.3z"/>
<g>
	<path style="fill:#FFFFFF;" class="st1" d="M217.3,75.2H82.7c-4,0-7.5,1.6-10.1,4.2c-0.6,0.6-1.2,1.4-1.8,2.1c-1.3,1.9-2.1,4.1-2.4,6.6
		c0,0.5-0.1,1-0.1,1.5l0,0v86l0,0c0,0.5,0,1,0.1,1.5c0.2,2.4,1.1,4.6,2.4,6.6c0.5,0.8,1.1,1.5,1.8,2.1c2.6,2.6,6.2,4.2,10.1,4.2h38
		c5.4,0,9.7-4.3,9.7-9.7l0,0l0,0c0-1.3-0.3-2.6-0.8-3.8c-0.7-1.7-2-3.2-3.5-4.3c-1.5-1-3.4-1.7-5.4-1.7h-33v-76h124.4v76h-28.5
		c-5.4,0-9.7,4.3-9.7,9.7s4.3,9.7,9.7,9.7h33.5c7.9,0,14.3-6.4,14.3-14.4v-86C231.6,81.6,225.2,75.2,217.3,75.2z"/>
	<path style="fill:#FFFFFF;" class="st1" d="M191.1,205.4h-31.4v-63.3h13.7c2.6,0,3.4-1.7,1.9-3.8l-23-32c-1.3-1.8-3.2-2-4.7-0.7l0,0
		c-0.2,0.2-0.5,0.5-0.7,0.7l0,0l-22.3,31.9c-0.2,0.3-0.3,0.5-0.4,0.8c-0.2,0.5-0.3,1-0.3,1.4c0.1,1,1.1,1.7,2.7,1.7h13.7v63.3h-31.4
		c-5.4,0-9.7,4.3-9.7,9.7l0,0l0,0c0,1.3,0.3,2.6,0.8,3.8c0.7,1.7,2,3.2,3.5,4.3c1.5,1,3.4,1.7,5.4,1.7h82.3c5.4,0,9.7-4.3,9.7-9.7
		C200.8,209.8,196.5,205.4,191.1,205.4z"/>
</g>
</svg>
