<?xml version="1.0" encoding="utf-8"?>
<!-- Generator: Adobe Illustrator 21.0.2, SVG Export Plug-In . SVG Version: 6.00 Build 0)  -->
<svg version="1.1" id="Layer_1" xmlns="http://www.w3.org/2000/svg" xmlns:xlink="http://www.w3.org/1999/xlink" x="0px" y="0px"
	 viewBox="0 0 300 300" style="enable-background:new 0 0 300 300;" xml:space="preserve">
<style type="text/css">
	.st0{fill:#00BBF1;}
	.st1{fill:#FFFFFF;}
</style>
<path style="fill:#00BBF1;"
      class="st0" d="M277.3,72.3L153.6,0.9c-1-0.6-2.3-0.9-3.6-0.9l0,0c-0.7,0-1.3,0.1-1.9,0.2c-0.6,0.1-1.2,0.4-1.7,0.6L22.7,72.3
	c-0.1,0.1-0.3,0.2-0.4,0.3c-1.8,1.3-3.2,3.9-3.2,6v142.8c0,1,0.3,2.1,0.8,3.1c0.3,0.6,0.6,1.1,1,1.6c0.5,0.6,1.1,1.2,1.8,1.6
	l123.7,71.4c0.3,0.1,0.6,0.2,0.8,0.3c0.9,0.3,1.8,0.5,2.8,0.5c1.3,0,2.6-0.3,3.6-0.9l123.7-71.4c2-1.2,3.6-4,3.6-6.3V78.6
	C281,76.3,279.3,73.4,277.3,72.3z"/>
<path style="fill:#FFFFFF;"
      class="st1" d="M217.2,162.1l-6.4-3.6c-1.7-1-3.6-1.2-5.5-1c0.3-2.5,0.6-4.9,0.6-7.5c0-2.7-0.3-5.3-0.6-7.9
	c1.8,0.2,3.7,0,5.5-1l6.4-3.6c4.4-2.5,6-8.2,3.5-12.6l-13-22.9c-2.5-4.4-8.2-6-12.6-3.5l-6.4,3.6c-1.7,1-2.9,2.5-3.6,4.2
	c-4.3-3.4-9.1-6.2-14.3-8.3c1.1-1.5,1.8-3.2,1.8-5.2v-7.3c0-5.1-4.2-9.3-9.3-9.3H137c-2,0-3.8,0.6-5.3,1.7c-2.4,1.7-4,4.4-4,7.6v7.3
	c0,1.5,0.4,2.8,1.1,4c0.2,0.4,0.5,0.8,0.7,1.2c-2.6,1.1-5.2,2.3-7.6,3.7c-2.4,1.4-4.7,3-6.9,4.8c-0.8-1.7-1.9-3.2-3.7-4.2l-5.2-3
	l-1.2-0.6c-0.7-0.4-1.3-0.6-2-0.8c-1.1-0.3-2.2-0.4-3.3-0.3c-1.2,0.1-2.3,0.4-3.4,1c-0.8,0.4-1.5,0.9-2.2,1.6
	c-0.5,0.5-1,1.1-1.4,1.7c-0.1,0.2-0.2,0.3-0.3,0.5l-5.6,10l-7.3,12.9c-0.3,0.6-0.6,1.1-0.7,1.7c-0.2,0.6-0.3,1.2-0.4,1.8
	c-0.1,0.6-0.1,1.2,0,1.8c0,0.6,0.2,1.2,0.3,1.8c0.2,0.6,0.4,1.1,0.6,1.7c0.8,1.6,2.1,3,3.7,3.9l6.4,3.6c0.4,0.2,0.9,0.4,1.3,0.6
	c1.3,0.5,2.8,0.5,4.1,0.4c-0.2,1.2-0.3,2.5-0.4,3.7s-0.2,2.5-0.2,3.8c0,2.7,0.3,5.3,0.6,7.9c-0.5,0-0.9-0.1-1.4-0.1
	c-0.9,0-1.9,0.2-2.7,0.5c-0.4,0.2-0.9,0.4-1.3,0.6l-6.4,3.6c-0.2,0.1-0.4,0.3-0.6,0.5c-0.8,0.5-1.5,1.2-2,1.9
	c-2.3,2.9-2.7,7-0.8,10.3l13,22.9c2.5,4.4,8.2,6,12.6,3.5l6.4-3.6c0.2-0.1,0.3-0.2,0.5-0.3c0.6-0.4,1.2-0.9,1.7-1.5
	c0.6-0.7,1.1-1.5,1.5-2.4c3.2,2.6,6.7,4.8,10.5,6.6c1.2,0.6,2.5,1.2,3.8,1.7c-1.1,1.5-1.8,3.2-1.8,5.2v7.3c0,3.1,1.5,5.7,3.8,7.4
	c1.5,1.1,3.4,1.8,5.5,1.8h26.3c5.1,0,9.3-4.2,9.3-9.3v-7.3c0-2-0.8-3.7-1.8-5.2c5.3-2.1,10.2-5,14.6-8.5c0.8,1.7,1.9,3.2,3.7,4.2
	l6.4,3.6c4.4,2.5,10.1,0.9,12.6-3.5L221,175C223.2,170.2,221.6,164.6,217.2,162.1z M150,192c-2.7,0-5.3-0.3-7.8-0.8
	c-0.2,0-0.5-0.1-0.7-0.1c-0.8-0.2-1.5-0.4-2.2-0.6c-0.6-0.2-1.2-0.3-1.8-0.5c-0.4-0.1-0.7-0.3-1.1-0.4c-0.9-0.3-1.8-0.6-2.7-1
	c-0.4-0.2-0.7-0.3-1-0.5c-0.9-0.4-1.8-0.8-2.6-1.3c-0.5-0.3-1-0.6-1.5-0.9c-0.7-0.4-1.3-0.8-2-1.2c-0.2-0.1-0.4-0.3-0.6-0.5
	c-4.2-3-7.8-6.6-10.7-10.9c-4.5-6.7-7.2-14.8-7.2-23.5c0-9.7,3.3-18.6,8.8-25.7c0.8-1.1,1.7-2.1,2.6-3.1c0.3-0.3,0.6-0.6,0.9-0.9
	s0.7-0.6,1-0.9c0.7-0.6,1.3-1.2,2-1.8c0,0,0.1,0,0.1-0.1c1-0.8,2.1-1.6,3.1-2.3c0.6-0.4,1.3-0.8,2-1.2c0.5-0.3,1-0.6,1.5-0.9
	c0.4-0.2,0.9-0.4,1.3-0.6c0.8-0.4,1.6-0.8,2.4-1.1c0.4-0.2,0.8-0.3,1.2-0.4c0.9-0.3,1.7-0.7,2.6-1c0.6-0.2,1.2-0.3,1.8-0.5
	c0.7-0.2,1.5-0.4,2.2-0.6c0.4-0.1,0.8-0.1,1.1-0.2c1-0.2,2-0.4,3-0.5c0.7-0.1,1.3-0.1,2-0.1c0.8,0,1.5-0.1,2.3-0.1
	c23.2,0,42,18.8,42,42C192,173.2,173.2,192,150,192z"/>
</svg>
